<svg width="308" height="107" viewBox="0 0 308 107" fill="none" xmlns="http://www.w3.org/2000/svg">
<g filter="url(#filter0_d_603_8)">
<path d="M217.27 96.0907C213.77 96.0907 212.02 96.0907 210.824 95.3652C209.776 94.7294 208.999 93.7309 208.639 92.5594C208.228 91.2227 208.656 89.526 209.513 86.1326L228.974 9.04165C229.519 6.88098 229.792 5.80065 230.396 4.99644C230.929 4.28685 231.642 3.73195 232.46 3.38874C233.388 2.99976 234.502 2.99976 236.73 2.99976H291.939C295.525 2.99976 297.319 2.99976 298.527 3.74628C299.585 4.40027 300.362 5.42535 300.705 6.62126C301.096 7.9864 300.611 9.71286 299.64 13.1658L298.412 17.5294C297.824 19.62 297.53 20.6653 296.924 21.4415C296.389 22.1265 295.684 22.6602 294.88 22.9899C293.969 23.3634 292.883 23.3634 290.711 23.3634H258.497C256.314 23.3634 255.222 23.3634 254.307 23.7402C253.5 24.0727 252.793 24.6108 252.259 25.3011C251.653 26.0832 251.363 27.1359 250.784 29.2413V29.2413C249.837 32.6817 249.364 34.4019 249.76 35.761C250.106 36.9518 250.883 37.9712 251.939 38.6213C253.145 39.3634 254.929 39.3634 258.497 39.3634H282.033C285.592 39.3634 287.371 39.3634 288.575 40.1031C289.63 40.7512 290.407 41.7676 290.756 42.9557C291.154 44.3117 290.687 46.0286 289.753 49.4625L288.604 53.6898C288.029 55.803 287.742 56.8596 287.136 57.6447C286.601 58.3377 285.894 58.8782 285.085 59.2122C284.169 59.5907 283.074 59.5907 280.884 59.5907H248.6C246.415 59.5907 245.322 59.5907 244.407 59.9679C243.599 60.3008 242.893 60.8395 242.358 61.5303C241.752 62.3132 241.458 63.3835 240.871 65.5242V65.5242C239.912 69.0205 239.432 70.7687 239.828 72.1271C240.176 73.3172 240.952 74.3359 242.008 74.9855C243.213 75.727 244.996 75.727 248.562 75.727H272.552C276.105 75.727 277.881 75.727 279.084 76.4654C280.139 77.1123 280.916 78.1271 281.265 79.3137C281.665 80.6678 281.201 82.3829 280.275 85.813L279.096 90.1766C278.524 92.2942 278.238 93.3531 277.633 94.14C277.098 94.8345 276.391 95.3763 275.581 95.7112C274.663 96.0907 273.567 96.0907 271.373 96.0907H217.27Z" fill="#493063"/>
<path d="M180.243 2.99976C182.313 2.99976 183.348 2.99976 184.229 3.34578C185.007 3.65135 185.696 4.14712 186.233 4.78775C186.841 5.5132 187.17 6.49458 187.828 8.45733L207.762 67.9302C207.904 68.3519 208.299 68.6361 208.744 68.6361V68.6361C209.194 68.6361 209.592 68.3453 209.729 67.9166L228.719 8.56193C229.359 6.56354 229.678 5.56434 230.286 4.82481C230.823 4.17183 231.517 3.66559 232.302 3.35337C233.192 2.99976 234.241 2.99976 236.339 2.99976H243.513C247.078 2.99976 248.86 2.99976 250.065 3.74092C251.121 4.39029 251.897 5.40862 252.245 6.59837C252.641 7.95633 252.17 9.67532 251.229 13.1133L230.111 90.2042C229.534 92.3125 229.245 93.3667 228.639 94.1499C228.105 94.8412 227.398 95.3802 226.59 95.7133C225.675 96.0907 224.582 96.0907 222.396 96.0907H196.293C193.984 96.0907 192.83 96.0907 191.879 95.6796C191.042 95.3171 190.319 94.7321 189.79 93.988C189.19 93.1443 188.949 92.015 188.469 89.7565L172.057 12.6656C171.352 9.35702 171 7.70276 171.436 6.40602C171.819 5.26885 172.597 4.30711 173.63 3.69629C174.807 2.99976 176.499 2.99976 179.881 2.99976H180.243Z" fill="#5F3F7F"/>
<path d="M153.616 89.4093C153.219 91.7831 153.021 92.97 152.428 93.8606C151.905 94.6457 151.172 95.267 150.311 95.6529C149.335 96.0907 148.132 96.0907 145.725 96.0907H136.459C133.205 96.0907 131.578 96.0907 130.422 95.4265C129.407 94.8437 128.629 93.9234 128.223 92.8259C127.76 91.5752 128.03 89.9707 128.571 86.7617L141.557 9.67083C141.956 7.30044 142.156 6.11525 142.749 5.22601C143.271 4.44214 144.005 3.82188 144.865 3.4367C145.84 2.99976 147.042 2.99976 149.446 2.99976H176.736C178.809 2.99976 179.845 2.99976 180.727 3.34637C181.505 3.65246 182.195 4.14904 182.732 4.79064C183.34 5.51719 183.668 6.49996 184.324 8.46549L210.072 85.5564C211.259 89.1127 211.853 90.8909 211.498 92.3064C211.188 93.5454 210.415 94.6186 209.338 95.3057C208.108 96.0907 206.233 96.0907 202.484 96.0907H194.224C192.164 96.0907 191.134 96.0907 190.256 95.7475C189.481 95.4444 188.794 94.9526 188.257 94.3166C187.649 93.5964 187.316 92.6218 186.652 90.6725L165.754 29.3849C165.602 28.9371 165.181 28.6361 164.708 28.6361V28.6361C164.168 28.6361 163.706 29.0266 163.617 29.5595L153.616 89.4093ZM144.805 65.9991C145.213 63.6404 145.417 62.461 146.011 61.5766C146.534 60.7969 147.267 60.1804 148.124 59.7976C149.097 59.3634 150.294 59.3634 152.688 59.3634H187.723C190.99 59.3634 192.624 59.3634 193.782 60.0309C194.799 60.6166 195.577 61.5412 195.981 62.6429C196.441 63.8985 196.163 65.5082 195.605 68.7277L195.102 71.6368C194.694 73.9955 194.49 75.1748 193.896 76.0593C193.372 76.839 192.64 77.4555 191.783 77.8383C190.81 78.2725 189.613 78.2725 187.219 78.2725H152.184C148.917 78.2725 147.283 78.2725 146.125 77.605C145.108 77.0193 144.33 76.0946 143.926 74.993C143.466 73.7374 143.744 72.1276 144.302 68.9082L144.805 65.9991Z" fill="#744C9C"/>
<path d="M60.3433 7.61275C61.1246 5.9409 61.5152 5.10498 62.1173 4.49296C62.6496 3.95188 63.2981 3.5391 64.0137 3.2859C64.823 2.99951 65.7457 2.99951 67.5911 2.99951L85.4909 2.99951C87.9737 2.99951 89.2151 2.99951 90.2108 3.45811C91.0881 3.8622 91.8295 4.51174 92.3456 5.32822C92.9312 6.25485 93.0946 7.48546 93.4213 9.94668L99.3059 54.2723C99.4165 55.1048 100.126 55.7268 100.966 55.7268V55.7268C101.599 55.7268 102.178 55.3698 102.463 54.804L126.284 7.40702C127.088 5.80688 127.49 5.0068 128.089 4.42236C128.618 3.90552 129.255 3.51255 129.955 3.27178C130.746 2.99951 131.641 2.99951 133.432 2.99951H154.97C158.218 2.99951 159.841 2.99951 160.996 3.66189C162.01 4.24316 162.788 5.16118 163.196 6.25651C163.66 7.50467 163.394 9.10635 162.862 12.3097L150.064 89.4006C149.67 91.7772 149.472 92.9655 148.88 93.8573C148.358 94.6433 147.623 95.2656 146.762 95.652C145.786 96.0904 144.581 96.0904 142.172 96.0904H133.659C130.414 96.0904 128.791 96.0904 127.636 95.4284C126.622 94.8474 125.844 93.9298 125.436 92.8349C124.972 91.5873 125.237 89.9861 125.767 86.7839L133.056 42.7507C133.098 42.5001 132.904 42.2722 132.65 42.2722V42.2722C132.501 42.2722 132.363 42.3534 132.291 42.4842L104.874 91.9675C104.043 93.468 103.627 94.2182 103.035 94.7645C102.512 95.2479 101.891 95.6137 101.214 95.8375C100.449 96.0904 99.5917 96.0904 97.8764 96.0904H86.3977C83.9504 96.0904 82.7268 96.0904 81.7402 95.6416C80.8706 95.246 80.1326 94.6096 79.6135 93.8077C79.0244 92.8977 78.8445 91.6874 78.4847 89.2667L71.8418 44.5784C71.6449 43.2533 70.5072 42.2722 69.1675 42.2722V42.2722C68.1447 42.2722 67.2095 42.8494 66.7508 43.7636L42.7128 91.6778C41.9091 93.2797 41.5073 94.0807 40.9087 94.6658C40.3794 95.1833 39.7418 95.5767 39.042 95.8178C38.2506 96.0904 37.3544 96.0904 35.5622 96.0904H31.5676C27.39 96.0904 25.3012 96.0904 24.0214 95.2104C22.9033 94.4415 22.1457 93.2513 21.9225 91.9129C21.667 90.3808 22.5513 88.4885 24.3199 84.7037L60.3433 7.61275Z" fill="#8356AF"/>
<path d="M33.6804 91.5631C32.8893 93.2051 32.4937 94.0261 31.893 94.6267C31.3619 95.1577 30.718 95.5622 30.0091 95.8102C29.2074 96.0907 28.296 96.0907 26.4733 96.0907H16.9999C12.6975 96.0907 10.5463 96.0907 9.25408 95.1846C8.12576 94.3935 7.37398 93.1717 7.17629 91.808C6.94987 90.246 7.91941 88.3257 9.85848 84.4851L48.7804 7.39417C49.5859 5.7986 49.9887 5.00082 50.5869 4.41813C51.1159 3.90283 51.7525 3.51111 52.4509 3.27113C53.2407 2.99976 54.1344 2.99976 55.9218 2.99976H82.4265C84.9302 2.99976 86.182 2.99976 87.1829 3.46407C88.0647 3.87314 88.8081 4.53038 89.3222 5.35537C89.9057 6.29175 90.0592 7.53414 90.3661 10.0189L99.8896 87.1098C100.273 90.2141 100.465 91.7662 99.977 92.9694C99.5486 94.0259 98.772 94.9043 97.776 95.459C96.6417 96.0907 95.0778 96.0907 91.9499 96.0907H84.9513C82.4866 96.0907 81.2542 96.0907 80.2632 95.637C79.3898 95.2373 78.6501 94.5944 78.1325 93.7854C77.5451 92.8673 77.3732 91.647 77.0295 89.2063L68.8633 31.2225C68.6544 29.7392 67.3851 28.6361 65.8871 28.6361V28.6361C64.7328 28.6361 63.6805 29.2972 63.1795 30.3371L33.6804 91.5631ZM35.805 65.9991C36.2132 63.6404 36.4173 62.461 37.0111 61.5766C37.5345 60.7969 38.2669 60.1804 39.1244 59.7976C40.0972 59.3634 41.2941 59.3634 43.6878 59.3634H78.7226C81.99 59.3634 83.6237 59.3634 84.7824 60.0309C85.7991 60.6166 86.5774 61.5412 86.9812 62.6429C87.4413 63.8985 87.1627 65.5082 86.6055 68.7277L86.102 71.6368C85.6937 73.9955 85.4896 75.1748 84.8959 76.0593C84.3725 76.839 83.6401 77.4555 82.7825 77.8383C81.8098 78.2725 80.6129 78.2725 78.2192 78.2725H43.1843C39.9169 78.2725 38.2833 78.2725 37.1246 77.605C36.1079 77.0193 35.3295 76.0946 34.9258 74.993C34.4657 73.7374 34.7443 72.1276 35.3015 68.9082L35.805 65.9991Z" fill="#9966CC"/>
</g>
<defs>
<filter id="filter0_d_603_8" x="0.844043" y="0.699512" width="306.297" height="105.691" filterUnits="userSpaceOnUse" color-interpolation-filters="sRGB">
<feFlood flood-opacity="0" result="BackgroundImageFix"/>
<feColorMatrix in="SourceAlpha" type="matrix" values="0 0 0 0 0 0 0 0 0 0 0 0 0 0 0 0 0 0 127 0" result="hardAlpha"/>
<feOffset dy="4"/>
<feGaussianBlur stdDeviation="3.15"/>
<feComposite in2="hardAlpha" operator="out"/>
<feColorMatrix type="matrix" values="0 0 0 0 0 0 0 0 0 0 0 0 0 0 0 0 0 0 0.25 0"/>
<feBlend mode="normal" in2="BackgroundImageFix" result="effect1_dropShadow_603_8"/>
<feBlend mode="normal" in="SourceGraphic" in2="effect1_dropShadow_603_8" result="shape"/>
</filter>
</defs>
</svg>
